<svg width="1600" height="1000" viewBox="0 0 1600 1000" fill="none" xmlns="http://www.w3.org/2000/svg">
  <rect width="1600" height="1000" fill="#040810"/>
  <circle cx="541" cy="636" r="73" fill="#0ea5e9" fill-opacity="0.142"/>
  <circle cx="682" cy="491" r="104" fill="#38bdf8" fill-opacity="0.062"/>
  <circle cx="998" cy="163" r="147" fill="#7dd3fc" fill-opacity="0.109"/>
  <circle cx="1205" cy="354" r="178" fill="#0ea5e9" fill-opacity="0.137"/>
  <circle cx="186" cy="696" r="80" fill="#38bdf8" fill-opacity="0.137"/>
  <circle cx="1395" cy="243" r="103" fill="#7dd3fc" fill-opacity="0.123"/>
  <circle cx="1129" cy="222" r="66" fill="#0ea5e9" fill-opacity="0.078"/>
  <circle cx="983" cy="774" r="197" fill="#38bdf8" fill-opacity="0.051"/>
  <polyline points="0,580 84,648 168,692 253,699 337,665 421,595 505,503 589,407 674,327 758,281 842,277 926,315 1011,386 1095,474 1179,559 1263,624 1347,655 1432,650 1516,613 1600,556" stroke="#0ea5e9" stroke-width="2" stroke-opacity="0.08" fill="none" stroke-linecap="round" stroke-linejoin="round"/>
  <polyline points="0,735 84,719 168,656 253,558 337,446 421,343 505,271 589,245 674,270 758,339 842,435 926,537 1011,621 1095,671 1179,677 1263,643 1347,579 1432,505 1516,440 1600,403" stroke="#38bdf8" stroke-width="3" stroke-opacity="0.11" fill="none" stroke-linecap="round" stroke-linejoin="round"/>
  <polyline points="0,622 84,498 168,374 253,275 337,223 421,228 505,288 589,387 674,502 758,607 842,679 926,703 1011,677 1095,611 1179,525 1263,443 1347,386 1432,369 1516,397 1600,460" stroke="#7dd3fc" stroke-width="4" stroke-opacity="0.14" fill="none" stroke-linecap="round" stroke-linejoin="round"/>
  <polyline points="0,295 84,213 168,192 253,235 337,331 421,456 505,581 589,676 674,723 758,712 842,650 926,557 1011,457 1095,378 1179,341 1263,355 1347,417 1432,509 1516,606 1600,682" stroke="#0ea5e9" stroke-width="5" stroke-opacity="0.17" fill="none" stroke-linecap="round" stroke-linejoin="round"/>
  <polyline points="0,186 84,271 168,400 253,541 337,662 421,735 505,745 589,694 674,598 758,483 842,382 926,320 1011,315 1095,367 1179,464 1263,578 1347,680 1432,741 1516,742 1600,680" stroke="#38bdf8" stroke-width="6" stroke-opacity="0.2" fill="none" stroke-linecap="round" stroke-linejoin="round"/>
  <text x="80" y="120" fill="#0ea5e9" font-family="Georgia, serif" font-size="42" fill-opacity="0.4" letter-spacing="0.02em">APPLICATIONS</text>
  <text x="80" y="155" fill="#38bdf8" font-family="monospace" font-size="14" fill-opacity="0.25" letter-spacing="0.15em">NYU ITP</text>
</svg>